<svg version="1.1" id="Layer_1" xmlns="http://www.w3.org/2000/svg" xmlns:xlink="http://www.w3.org/1999/xlink" x="0px" y="0px"
	 width="100%" viewBox="0 0 256 256" enable-background="new 0 0 256 256" xml:space="preserve">
<path fill="#000000" opacity="1.000000" stroke="none" 
	d="
M173.000000,257.000000 
	C115.333336,257.000000 58.166672,257.000000 1.000008,257.000000 
	C1.000005,171.666672 1.000005,86.333351 1.000003,1.000019 
	C86.333321,1.000013 171.666641,1.000013 257.000000,1.000006 
	C257.000000,86.333313 257.000000,171.666626 257.000000,256.999969 
	C229.166672,257.000000 201.333328,257.000000 173.000000,257.000000 
M143.500000,191.000000 
	C160.994766,191.000000 178.490204,190.905716 195.984100,191.029053 
	C210.691345,191.132736 223.205032,183.540985 227.010117,168.358780 
	C232.987732,144.508194 239.000061,120.666321 245.008163,96.823395 
	C245.282745,95.733742 245.676086,94.674591 245.987427,93.593544 
	C249.241837,82.293724 243.379379,76.905708 232.745438,76.942619 
	C191.924393,77.084312 151.102585,77.000000 110.281059,77.000008 
	C108.115021,77.000008 105.903992,76.716690 103.791191,77.052124 
	C96.842682,78.155258 92.129303,78.932213 91.991272,86.372284 
	C91.843163,94.355919 95.395370,97.994827 103.509361,97.996506 
	C141.498367,98.004372 179.487381,98.000000 217.476395,98.000000 
	C219.277863,98.000000 221.079346,98.000000 222.976257,98.000000 
	C222.976257,99.264069 223.145584,100.134544 222.951569,100.914642 
	C217.985657,120.881866 212.969025,140.836487 207.991241,160.800766 
	C206.204269,167.967743 203.048843,170.899200 195.352509,170.938614 
	C165.861801,171.089661 136.368881,171.126221 106.879219,170.896469 
	C100.763641,170.848831 96.864311,168.906311 94.926407,161.773254 
	C91.058975,147.537979 86.947800,133.369125 82.990509,119.158005 
	C76.964584,97.518211 70.803101,75.913757 65.046967,54.202087 
	C61.152733,39.513367 49.688007,30.815510 35.540150,30.984589 
	C28.209982,31.072189 20.877619,30.960016 13.546786,31.012693 
	C7.707709,31.054653 4.003125,34.980064 4.000006,40.985416 
	C3.996886,46.992088 7.701661,50.937016 13.517634,50.987511 
	C19.848660,51.042480 26.191343,51.230736 32.508968,50.934635 
	C38.735275,50.642815 43.343243,53.233257 45.141148,60.219128 
	C48.696815,74.034843 52.954834,87.668076 56.761028,101.421425 
	C62.582260,122.455978 68.409073,143.490906 73.964714,164.596420 
	C78.473427,181.724731 88.835991,191.477982 107.511261,191.049698 
	C119.168427,190.782379 130.836700,191.000000 143.500000,191.000000 
M173.463226,211.023285 
	C171.975586,214.522720 169.779190,217.899277 169.146790,221.546982 
	C167.799652,229.317123 176.453232,239.294922 186.579010,238.162430 
	C192.994278,237.444916 197.556229,234.774323 199.846069,229.109848 
	C202.030533,223.705978 202.115921,218.016602 198.419586,212.898514 
	C193.447144,206.013550 182.959763,202.521393 173.463226,211.023285 
M129.566071,232.957413 
	C133.074982,228.788239 133.863190,224.014160 133.029816,218.732376 
	C131.616577,209.775604 123.231438,205.352203 115.703094,206.074661 
	C107.225975,206.888153 99.645721,215.919952 101.096909,223.532654 
	C102.327827,229.989822 105.590919,235.797455 112.276329,237.547348 
	C118.154221,239.085876 124.406090,238.802414 129.566071,232.957413 
z"/>
<path fill="#FFFFFF" opacity="1.000000" stroke="none" 
	d="
M143.000000,191.000000 
	C130.836700,191.000000 119.168427,190.782379 107.511261,191.049698 
	C88.835991,191.477982 78.473427,181.724731 73.964714,164.596420 
	C68.409073,143.490906 62.582260,122.455978 56.761028,101.421425 
	C52.954834,87.668076 48.696815,74.034843 45.141148,60.219128 
	C43.343243,53.233257 38.735275,50.642815 32.508968,50.934635 
	C26.191343,51.230736 19.848660,51.042480 13.517634,50.987511 
	C7.701661,50.937016 3.996886,46.992088 4.000006,40.985416 
	C4.003125,34.980064 7.707709,31.054653 13.546786,31.012693 
	C20.877619,30.960016 28.209982,31.072189 35.540150,30.984589 
	C49.688007,30.815510 61.152733,39.513367 65.046967,54.202087 
	C70.803101,75.913757 76.964584,97.518211 82.990509,119.158005 
	C86.947800,133.369125 91.058975,147.537979 94.926407,161.773254 
	C96.864311,168.906311 100.763641,170.848831 106.879219,170.896469 
	C136.368881,171.126221 165.861801,171.089661 195.352509,170.938614 
	C203.048843,170.899200 206.204269,167.967743 207.991241,160.800766 
	C212.969025,140.836487 217.985657,120.881866 222.951569,100.914642 
	C223.145584,100.134544 222.976257,99.264069 222.976257,98.000000 
	C221.079346,98.000000 219.277863,98.000000 217.476395,98.000000 
	C179.487381,98.000000 141.498367,98.004372 103.509361,97.996506 
	C95.395370,97.994827 91.843163,94.355919 91.991272,86.372284 
	C92.129303,78.932213 96.842682,78.155258 103.791191,77.052124 
	C105.903992,76.716690 108.115021,77.000008 110.281059,77.000008 
	C151.102585,77.000000 191.924393,77.084312 232.745438,76.942619 
	C243.379379,76.905708 249.241837,82.293724 245.987427,93.593544 
	C245.676086,94.674591 245.282745,95.733742 245.008163,96.823395 
	C239.000061,120.666321 232.987732,144.508194 227.010117,168.358780 
	C223.205032,183.540985 210.691345,191.132736 195.984100,191.029053 
	C178.490204,190.905716 160.994766,191.000000 143.000000,191.000000 
z"/>
<path fill="#FFFFFF" opacity="1.000000" stroke="none" 
	d="
M173.735794,210.755157 
	C182.959763,202.521393 193.447144,206.013550 198.419586,212.898514 
	C202.115921,218.016602 202.030533,223.705978 199.846069,229.109848 
	C197.556229,234.774323 192.994278,237.444916 186.579010,238.162430 
	C176.453232,239.294922 167.799652,229.317123 169.146790,221.546982 
	C169.779190,217.899277 171.975586,214.522720 173.735794,210.755157 
z"/>
<path fill="#FFFFFF" opacity="1.000000" stroke="none" 
	d="
M129.288681,233.219116 
	C124.406090,238.802414 118.154221,239.085876 112.276329,237.547348 
	C105.590919,235.797455 102.327827,229.989822 101.096909,223.532654 
	C99.645721,215.919952 107.225975,206.888153 115.703094,206.074661 
	C123.231438,205.352203 131.616577,209.775604 133.029816,218.732376 
	C133.863190,224.014160 133.074982,228.788239 129.288681,233.219116 
z"/>
</svg>