<svg width="158" height="188" viewBox="0 0 158 188" fill="none" xmlns="http://www.w3.org/2000/svg">
<path fill-rule="evenodd" clip-rule="evenodd" d="M81 25.875C81 40.106 81.28 53.152 81.623 54.865L82.246 57.98L86.039 53.74C88.962 50.473 90.109 49.769 91.038 50.672C92.46 52.054 92.824 59.197 91.696 63.613L90.901 66.726L96.201 64.896C103.348 62.427 113 62.552 113 65.114C113 67.117 105.523 74.059 100.864 76.38L95.858 78.875L98.78 80.386C102.396 82.256 108.244 88.779 107.709 90.344C107.259 91.659 102.67 91.783 95.831 90.665L91.162 89.902L93.589 98.701C94.924 103.54 96.125 108.175 96.258 109C96.452 110.205 94.975 110.557 88.75 110.792L81 111.084V127.042V143L92.75 142.968L104.5 142.937L101.989 140.718C98.674 137.79 94 131.61 94 130.156C94 128.196 103.645 128.778 108 131C112.324 133.206 113.404 133.463 112.551 132.083C111.49 130.366 111.741 116.515 112.911 112.25C113.561 109.881 114.684 108 115.45 108C118.845 108 125.359 119.136 126.636 127.124L127.267 131.071L129.545 127.786C130.798 125.979 133.208 123.6 134.9 122.5C136.593 121.4 138.165 120.012 138.394 119.415C138.623 118.819 137.788 115.669 136.537 112.415C133.939 105.653 127.373 87.821 123.681 77.5C118.896 64.124 109.723 39.498 109.377 39.097C109.185 38.876 108.089 39.888 106.941 41.347C105.794 42.806 104.455 44 103.966 44C102.52 44 100.786 35.955 101.459 32.368L102.08 29.055L96.79 31.518C93.804 32.908 89.649 33.985 87.25 33.99C83.631 33.999 83 33.696 83 31.952C83 29.868 92.042 20 93.952 20C96.052 20 94.928 18.17 92.25 17.228C89.537 16.273 84 11.419 84 9.994C84 8.856 90.586 8.06201 94.75 8.69901L98.5 9.27299L95.606 6.181C92.994 3.391 85.706 0 82.322 0C81.26 0 81 5.091 81 25.875ZM67.5 2.41701C59.952 5.78601 54.593 15.953 56.255 23.748C57.008 27.28 56.733 30.801 54.976 40.127C53.676 47.029 52.967 53.717 53.285 56.089C53.586 58.334 55.73 64.07 58.05 68.835C60.369 73.601 63.246 80.514 64.444 84.198L66.62 90.895L71.944 71.238C76.924 52.85 77.23 51.061 76.681 43.54C76.339 38.856 74.62 30.522 72.563 23.573C69.96 14.777 69.194 10.637 69.648 7.80099C69.986 5.68599 70.654 3.71401 71.131 3.41901C72.196 2.76101 72.284 0.985001 71.25 1.039C70.838 1.061 69.15 1.68101 67.5 2.41701ZM74.999 5.00301C73.408 7.97501 73.562 15.019 75.304 19C76.82 22.462 76.838 22.393 76.918 12.75C76.963 7.387 76.791 3 76.535 3C76.28 3 75.588 3.90101 74.999 5.00301ZM87 10.779C87 12.484 93.245 15.856 97.733 16.573C101.58 17.188 101.836 17.087 101.329 15.151C101.029 14.004 100.189 12.571 99.461 11.968C97.613 10.434 87 9.42201 87 10.779ZM96.429 21.381C93.64 22.679 89.914 25.488 88.149 27.621L84.94 31.5L87.615 31.83C93.374 32.542 104.862 25.689 103.567 22.315C103.255 21.502 103 20.423 103 19.918C103 18.559 102.022 18.777 96.429 21.381ZM46.062 45.244C38.18 66.384 37.487 71.918 41.424 82.273C45.074 91.871 44.804 96.228 39.839 107.801C33.501 122.576 33.553 129.941 40.058 138.921C42.95 142.914 43.139 143 49.032 143H55.051L53.312 139.75C52.148 137.577 51.56 134.181 51.536 129.5C51.504 123.192 52.009 121.362 56.642 111C59.471 104.675 62.088 97.644 62.459 95.375C63.284 90.329 59.935 79.589 54.39 69.501C49.695 60.959 48.882 52.476 51.479 39.106C52.436 34.183 53.056 29.667 52.857 29.072C52.659 28.476 49.601 35.754 46.062 45.244ZM103.6 31.319C102.849 35.323 103.874 41.196 105.183 40.387C107.207 39.136 108.069 34.738 106.952 31.356C105.548 27.1 104.394 27.087 103.6 31.319ZM86.75 56.094C85.238 58.071 84.006 60.771 84.014 62.094C84.032 65.393 85.071 69 86.003 69C87.766 69 90.097 61.786 89.804 57.235L89.5 52.5L86.75 56.094ZM98.951 66.362C92.068 68.218 86.828 71.786 87.196 74.365C87.859 79.016 98.598 76.953 105.276 70.892C108.783 67.709 109.245 66.886 108 66.045C106.12 64.774 104.649 64.825 98.951 66.362ZM32.695 81.25C31.824 84.137 28.133 94.6 24.492 104.5C14.643 131.277 11.023 141.415 11.011 142.25C11.005 142.663 17.042 143 24.428 143H37.855L34.722 136.924C30.225 128.206 30.368 120.503 35.23 109.5C41.672 94.924 41.686 94.808 38.394 84.803C36.802 79.966 35.225 76.007 34.889 76.004C34.553 76.002 33.566 78.363 32.695 81.25ZM89 82C89 85.268 92.394 87.729 97.955 88.494C100.8 88.885 103.396 88.937 103.725 88.609C104.717 87.616 101.282 84.495 96.65 82.182C91.176 79.448 89 79.396 89 82ZM58.038 116.25C54.725 124.055 54.258 132.533 56.821 138.328L58.888 143H67.944H77V127V111H68.633H60.267L58.038 116.25ZM114.427 115.535C112.806 124.179 115.777 135.778 120.77 140.293C123.089 142.39 123.449 141.855 124.519 134.724C125.319 129.387 123.217 121.092 119.776 116.014C116.602 111.328 115.24 111.206 114.427 115.535ZM135.093 125.518C130.823 129.376 126.03 137.679 126.01 141.25C125.995 143.97 129.922 143.385 132.732 140.25C136.28 136.292 140.188 127.483 139.818 124.28L139.5 121.535L135.093 125.518ZM141 131.273C141 131.973 139.451 134.898 137.557 137.773L134.115 143H140.557C144.101 143 147 142.709 147 142.353C147 140.553 142.614 130 141.866 130C141.39 130 141 130.573 141 131.273ZM98 132.296C98 133.131 100.299 135.881 103.108 138.407C107.924 142.737 108.539 142.998 113.858 142.959L119.5 142.918L115.011 138.861C109.701 134.062 106.741 132.417 101.715 131.474C98.753 130.919 98 131.085 98 132.296ZM13.012 154.75C13.031 166.956 15.82 175.268 22.782 183.861C26.281 188.179 26.368 188.217 31.657 187.779C34.594 187.535 37.256 187.078 37.571 186.762C37.886 186.447 35.859 183.354 33.067 179.888C27.379 172.829 24.275 165.63 22.768 156C21.315 146.712 21.498 147 17.031 147H13L13.012 154.75ZM27.667 147.667C25.714 149.619 28.138 161.552 32.096 169.479C34.857 175.007 40.634 182 42.439 182C43.145 182 44.782 180.002 46.077 177.561L48.432 173.121L45.149 169.035C41.049 163.934 38.372 157.908 37.469 151.75L36.773 147H32.553C30.232 147 28.033 147.3 27.667 147.667ZM43 151.214C43 155.408 46.12 162.893 48.927 165.434C50.621 166.967 50.795 166.803 51.99 162.537C52.935 159.161 52.969 157.668 52.126 156.652C51.504 155.903 50.389 153.537 49.647 151.395C48.545 148.212 47.815 147.492 45.65 147.454C43.239 147.411 43 147.751 43 151.214ZM54 147.95C54 148.437 54.288 149.586 54.639 150.502C55.149 151.831 55.449 151.898 56.124 150.834C57.329 148.933 57.204 148.292 55.5 147.638C54.675 147.322 54 147.462 54 147.95ZM101 147.99C101 148.848 108.426 169.689 110.503 174.662L112.071 178.413L113.95 175.322C114.984 173.622 117.44 171.003 119.408 169.502L122.987 166.773L119.045 163.918C114.691 160.763 113.267 158.677 110.914 152C109.388 147.669 109.172 147.497 105.164 147.408C102.874 147.357 101 147.619 101 147.99ZM120 148.12C120 148.53 120.865 149.14 121.922 149.475C122.979 149.811 125.512 151.932 127.551 154.188C130.373 157.311 131.445 157.958 132.041 156.895C133.581 154.153 136.553 151.241 139.872 149.223L143.244 147.173L131.622 147.274C125.23 147.329 120 147.71 120 148.12ZM3.669 161.204C0.188001 170.732 -0.0610018 172.06 0.937998 175.771C1.557 178.068 3.29099 180.908 4.90199 182.264C7.72699 184.641 16.563 187.77 17.58 186.753C17.867 186.466 16.744 184.089 15.083 181.47C10.923 174.91 8.804 167.985 8.098 158.645L7.49999 150.719L3.669 161.204ZM148.55 156.25C147.515 158.038 144.83 161.247 142.584 163.383C139.541 166.277 138.882 167.396 140 167.777C142.878 168.756 148.563 175.645 149.942 179.825L151.332 184.037L153.677 181.833C154.967 180.622 156.48 177.933 157.038 175.858C157.913 172.609 157.603 170.758 154.808 162.542C153.023 157.294 151.308 153 150.997 153C150.686 153 149.584 154.462 148.55 156.25ZM128.658 177.592C127.644 178.983 125.076 181.381 122.951 182.92L119.088 185.719L121.591 186.859C125.798 188.776 143 187.981 143 185.869C143 185.391 142.428 185 141.728 185C139.833 185 133.214 179.249 132.493 176.977C131.673 174.396 130.895 174.521 128.658 177.592Z" fill="black"/>
</svg>
